<mxfile host="app.diagrams.net" modified="2021-09-23T08:20:38.124Z" agent="5.0 (Windows NT 10.0; Win64; x64) AppleWebKit/537.36 (KHTML, like Gecko) Chrome/93.0.4577.82 Safari/537.36" etag="Tb05gDyLb7On26ILeAmj" version="14.9.9" type="github">
  <diagram id="C5RBs43oDa-KdzZeNtuy" name="Page-1">
    <mxGraphModel dx="3076" dy="3164" grid="1" gridSize="10" guides="1" tooltips="1" connect="1" arrows="1" fold="1" page="1" pageScale="1" pageWidth="827" pageHeight="1169" math="0" shadow="0">
      <root>
        <mxCell id="WIyWlLk6GJQsqaUBKTNV-0" />
        <mxCell id="WIyWlLk6GJQsqaUBKTNV-1" parent="WIyWlLk6GJQsqaUBKTNV-0" />
        <mxCell id="weqsW4NE5_YYrawKtb8E-2" value="ShardingDatabaseBroadcastRoutingEngine" style="rounded=0;whiteSpace=wrap;html=1;" vertex="1" parent="WIyWlLk6GJQsqaUBKTNV-1">
          <mxGeometry x="-860" y="-860" width="310" height="40" as="geometry" />
        </mxCell>
        <mxCell id="weqsW4NE5_YYrawKtb8E-8" style="edgeStyle=orthogonalEdgeStyle;rounded=0;orthogonalLoop=1;jettySize=auto;html=1;exitX=0;exitY=0.5;exitDx=0;exitDy=0;exitPerimeter=0;entryX=0.5;entryY=0;entryDx=0;entryDy=0;" edge="1" parent="WIyWlLk6GJQsqaUBKTNV-1" source="weqsW4NE5_YYrawKtb8E-7" target="weqsW4NE5_YYrawKtb8E-2">
          <mxGeometry relative="1" as="geometry" />
        </mxCell>
        <mxCell id="weqsW4NE5_YYrawKtb8E-28" value="Y" style="edgeLabel;html=1;align=center;verticalAlign=middle;resizable=0;points=[];" vertex="1" connectable="0" parent="weqsW4NE5_YYrawKtb8E-8">
          <mxGeometry x="-0.2874" relative="1" as="geometry">
            <mxPoint as="offset" />
          </mxGeometry>
        </mxCell>
        <mxCell id="weqsW4NE5_YYrawKtb8E-9" style="edgeStyle=orthogonalEdgeStyle;rounded=0;orthogonalLoop=1;jettySize=auto;html=1;exitX=1;exitY=0.5;exitDx=0;exitDy=0;exitPerimeter=0;" edge="1" parent="WIyWlLk6GJQsqaUBKTNV-1" source="weqsW4NE5_YYrawKtb8E-7" target="weqsW4NE5_YYrawKtb8E-10">
          <mxGeometry relative="1" as="geometry">
            <mxPoint x="250" y="-1070" as="targetPoint" />
          </mxGeometry>
        </mxCell>
        <mxCell id="weqsW4NE5_YYrawKtb8E-20" value="Y" style="edgeLabel;html=1;align=center;verticalAlign=middle;resizable=0;points=[];" vertex="1" connectable="0" parent="weqsW4NE5_YYrawKtb8E-9">
          <mxGeometry x="-0.5025" y="1" relative="1" as="geometry">
            <mxPoint as="offset" />
          </mxGeometry>
        </mxCell>
        <mxCell id="weqsW4NE5_YYrawKtb8E-21" value="N" style="edgeLabel;html=1;align=center;verticalAlign=middle;resizable=0;points=[];" vertex="1" connectable="0" parent="weqsW4NE5_YYrawKtb8E-9">
          <mxGeometry x="-0.4925" y="-1" relative="1" as="geometry">
            <mxPoint as="offset" />
          </mxGeometry>
        </mxCell>
        <mxCell id="weqsW4NE5_YYrawKtb8E-7" value="&lt;pre style=&quot;font-family: &amp;#34;cascadia code pl&amp;#34; , monospace ; font-size: 10.5pt&quot;&gt;&lt;span style=&quot;background-color: rgb(255 , 255 , 255)&quot;&gt;TCL&lt;/span&gt;&lt;/pre&gt;" style="strokeWidth=2;html=1;shape=mxgraph.flowchart.decision;whiteSpace=wrap;" vertex="1" parent="WIyWlLk6GJQsqaUBKTNV-1">
          <mxGeometry x="30" y="-1169" width="100" height="100" as="geometry" />
        </mxCell>
        <mxCell id="weqsW4NE5_YYrawKtb8E-11" style="edgeStyle=orthogonalEdgeStyle;rounded=0;orthogonalLoop=1;jettySize=auto;html=1;exitX=1;exitY=0.5;exitDx=0;exitDy=0;exitPerimeter=0;entryX=0.5;entryY=0;entryDx=0;entryDy=0;entryPerimeter=0;" edge="1" parent="WIyWlLk6GJQsqaUBKTNV-1" source="weqsW4NE5_YYrawKtb8E-10" target="weqsW4NE5_YYrawKtb8E-12">
          <mxGeometry relative="1" as="geometry">
            <mxPoint x="510" y="-1070" as="targetPoint" />
          </mxGeometry>
        </mxCell>
        <mxCell id="weqsW4NE5_YYrawKtb8E-22" value="N" style="edgeLabel;html=1;align=center;verticalAlign=middle;resizable=0;points=[];" vertex="1" connectable="0" parent="weqsW4NE5_YYrawKtb8E-11">
          <mxGeometry x="-0.4636" y="-2" relative="1" as="geometry">
            <mxPoint as="offset" />
          </mxGeometry>
        </mxCell>
        <mxCell id="weqsW4NE5_YYrawKtb8E-24" style="edgeStyle=orthogonalEdgeStyle;rounded=0;orthogonalLoop=1;jettySize=auto;html=1;entryX=0.5;entryY=0;entryDx=0;entryDy=0;entryPerimeter=0;" edge="1" parent="WIyWlLk6GJQsqaUBKTNV-1" source="weqsW4NE5_YYrawKtb8E-10" target="weqsW4NE5_YYrawKtb8E-23">
          <mxGeometry relative="1" as="geometry" />
        </mxCell>
        <mxCell id="weqsW4NE5_YYrawKtb8E-29" value="Y" style="edgeLabel;html=1;align=center;verticalAlign=middle;resizable=0;points=[];" vertex="1" connectable="0" parent="weqsW4NE5_YYrawKtb8E-24">
          <mxGeometry x="-0.0593" y="1" relative="1" as="geometry">
            <mxPoint as="offset" />
          </mxGeometry>
        </mxCell>
        <mxCell id="weqsW4NE5_YYrawKtb8E-10" value="&lt;pre style=&quot;font-family: &amp;#34;cascadia code pl&amp;#34; , monospace ; font-size: 10.5pt&quot;&gt;&lt;span style=&quot;background-color: rgb(255 , 255 , 255)&quot;&gt;DDL&lt;/span&gt;&lt;/pre&gt;" style="strokeWidth=2;html=1;shape=mxgraph.flowchart.decision;whiteSpace=wrap;" vertex="1" parent="WIyWlLk6GJQsqaUBKTNV-1">
          <mxGeometry x="570" y="-1010" width="100" height="80" as="geometry" />
        </mxCell>
        <mxCell id="weqsW4NE5_YYrawKtb8E-15" style="edgeStyle=orthogonalEdgeStyle;rounded=0;orthogonalLoop=1;jettySize=auto;html=1;entryX=0.5;entryY=0;entryDx=0;entryDy=0;entryPerimeter=0;" edge="1" parent="WIyWlLk6GJQsqaUBKTNV-1" source="weqsW4NE5_YYrawKtb8E-12" target="weqsW4NE5_YYrawKtb8E-16">
          <mxGeometry relative="1" as="geometry">
            <mxPoint x="680" y="-1070" as="targetPoint" />
          </mxGeometry>
        </mxCell>
        <mxCell id="weqsW4NE5_YYrawKtb8E-46" value="N" style="edgeLabel;html=1;align=center;verticalAlign=middle;resizable=0;points=[];" vertex="1" connectable="0" parent="weqsW4NE5_YYrawKtb8E-15">
          <mxGeometry x="-0.2" y="1" relative="1" as="geometry">
            <mxPoint as="offset" />
          </mxGeometry>
        </mxCell>
        <mxCell id="weqsW4NE5_YYrawKtb8E-47" style="edgeStyle=orthogonalEdgeStyle;rounded=0;orthogonalLoop=1;jettySize=auto;html=1;shadow=0;entryX=0.5;entryY=0;entryDx=0;entryDy=0;" edge="1" parent="WIyWlLk6GJQsqaUBKTNV-1" source="weqsW4NE5_YYrawKtb8E-12" target="weqsW4NE5_YYrawKtb8E-50">
          <mxGeometry relative="1" as="geometry">
            <mxPoint x="1500" y="-820" as="targetPoint" />
          </mxGeometry>
        </mxCell>
        <mxCell id="weqsW4NE5_YYrawKtb8E-49" value="Y" style="edgeLabel;html=1;align=center;verticalAlign=middle;resizable=0;points=[];" vertex="1" connectable="0" parent="weqsW4NE5_YYrawKtb8E-47">
          <mxGeometry x="-0.17" y="3" relative="1" as="geometry">
            <mxPoint as="offset" />
          </mxGeometry>
        </mxCell>
        <mxCell id="weqsW4NE5_YYrawKtb8E-12" value="DAL" style="strokeWidth=2;html=1;shape=mxgraph.flowchart.decision;whiteSpace=wrap;" vertex="1" parent="WIyWlLk6GJQsqaUBKTNV-1">
          <mxGeometry x="1700" y="-870" width="100" height="100" as="geometry" />
        </mxCell>
        <mxCell id="weqsW4NE5_YYrawKtb8E-16" value="DCL" style="strokeWidth=2;html=1;shape=mxgraph.flowchart.decision;whiteSpace=wrap;" vertex="1" parent="WIyWlLk6GJQsqaUBKTNV-1">
          <mxGeometry x="1950" y="-680" width="100" height="100" as="geometry" />
        </mxCell>
        <mxCell id="weqsW4NE5_YYrawKtb8E-25" style="edgeStyle=orthogonalEdgeStyle;rounded=0;orthogonalLoop=1;jettySize=auto;html=1;entryX=1;entryY=0.5;entryDx=0;entryDy=0;" edge="1" parent="WIyWlLk6GJQsqaUBKTNV-1" source="weqsW4NE5_YYrawKtb8E-23" target="weqsW4NE5_YYrawKtb8E-2">
          <mxGeometry relative="1" as="geometry">
            <mxPoint x="115" y="-750" as="targetPoint" />
          </mxGeometry>
        </mxCell>
        <mxCell id="weqsW4NE5_YYrawKtb8E-31" value="Y" style="edgeLabel;html=1;align=center;verticalAlign=middle;resizable=0;points=[];" vertex="1" connectable="0" parent="weqsW4NE5_YYrawKtb8E-25">
          <mxGeometry x="-0.1811" y="3" relative="1" as="geometry">
            <mxPoint as="offset" />
          </mxGeometry>
        </mxCell>
        <mxCell id="weqsW4NE5_YYrawKtb8E-30" style="edgeStyle=orthogonalEdgeStyle;rounded=0;orthogonalLoop=1;jettySize=auto;html=1;exitX=1;exitY=0.5;exitDx=0;exitDy=0;exitPerimeter=0;" edge="1" parent="WIyWlLk6GJQsqaUBKTNV-1" source="weqsW4NE5_YYrawKtb8E-23" target="weqsW4NE5_YYrawKtb8E-32">
          <mxGeometry relative="1" as="geometry">
            <mxPoint x="530" y="-840" as="targetPoint" />
          </mxGeometry>
        </mxCell>
        <mxCell id="weqsW4NE5_YYrawKtb8E-35" value="N" style="edgeLabel;html=1;align=center;verticalAlign=middle;resizable=0;points=[];" vertex="1" connectable="0" parent="weqsW4NE5_YYrawKtb8E-30">
          <mxGeometry x="-0.261" y="-3" relative="1" as="geometry">
            <mxPoint as="offset" />
          </mxGeometry>
        </mxCell>
        <mxCell id="weqsW4NE5_YYrawKtb8E-23" value="function&lt;br&gt;procedure" style="strokeWidth=2;html=1;shape=mxgraph.flowchart.decision;whiteSpace=wrap;" vertex="1" parent="WIyWlLk6GJQsqaUBKTNV-1">
          <mxGeometry x="-390" y="-890" width="100" height="100" as="geometry" />
        </mxCell>
        <mxCell id="weqsW4NE5_YYrawKtb8E-37" style="edgeStyle=orthogonalEdgeStyle;rounded=0;orthogonalLoop=1;jettySize=auto;html=1;exitX=1;exitY=0.5;exitDx=0;exitDy=0;shadow=0;" edge="1" parent="WIyWlLk6GJQsqaUBKTNV-1" source="weqsW4NE5_YYrawKtb8E-32" target="weqsW4NE5_YYrawKtb8E-38">
          <mxGeometry relative="1" as="geometry">
            <mxPoint x="850" y="-550" as="targetPoint" />
          </mxGeometry>
        </mxCell>
        <mxCell id="weqsW4NE5_YYrawKtb8E-32" value="CreateTablespace&lt;br&gt;AlterTablespace&lt;br&gt;DropTablespace" style="rhombus;whiteSpace=wrap;html=1;" vertex="1" parent="WIyWlLk6GJQsqaUBKTNV-1">
          <mxGeometry x="-220" y="-700" width="150" height="80" as="geometry" />
        </mxCell>
        <mxCell id="weqsW4NE5_YYrawKtb8E-33" style="edgeStyle=orthogonalEdgeStyle;rounded=0;orthogonalLoop=1;jettySize=auto;html=1;exitX=0;exitY=0.5;exitDx=0;exitDy=0;shadow=0;entryX=0.5;entryY=1;entryDx=0;entryDy=0;" edge="1" parent="WIyWlLk6GJQsqaUBKTNV-1" source="weqsW4NE5_YYrawKtb8E-32" target="weqsW4NE5_YYrawKtb8E-2">
          <mxGeometry relative="1" as="geometry">
            <mxPoint x="-10" y="-880" as="targetPoint" />
            <Array as="points">
              <mxPoint x="-705" y="-660" />
            </Array>
          </mxGeometry>
        </mxCell>
        <mxCell id="weqsW4NE5_YYrawKtb8E-36" value="Y" style="edgeLabel;html=1;align=center;verticalAlign=middle;resizable=0;points=[];" vertex="1" connectable="0" parent="weqsW4NE5_YYrawKtb8E-33">
          <mxGeometry x="-0.5061" y="1" relative="1" as="geometry">
            <mxPoint as="offset" />
          </mxGeometry>
        </mxCell>
        <mxCell id="weqsW4NE5_YYrawKtb8E-42" style="edgeStyle=orthogonalEdgeStyle;rounded=0;orthogonalLoop=1;jettySize=auto;html=1;exitX=1;exitY=0.5;exitDx=0;exitDy=0;shadow=0;entryX=0.5;entryY=0;entryDx=0;entryDy=0;" edge="1" parent="WIyWlLk6GJQsqaUBKTNV-1" source="weqsW4NE5_YYrawKtb8E-38" target="weqsW4NE5_YYrawKtb8E-43">
          <mxGeometry relative="1" as="geometry">
            <mxPoint x="800" y="-410" as="targetPoint" />
            <Array as="points">
              <mxPoint x="360" y="-530" />
              <mxPoint x="360" y="-290" />
            </Array>
          </mxGeometry>
        </mxCell>
        <mxCell id="weqsW4NE5_YYrawKtb8E-44" value="N" style="edgeLabel;html=1;align=center;verticalAlign=middle;resizable=0;points=[];" vertex="1" connectable="0" parent="weqsW4NE5_YYrawKtb8E-42">
          <mxGeometry x="-0.4965" y="-3" relative="1" as="geometry">
            <mxPoint as="offset" />
          </mxGeometry>
        </mxCell>
        <mxCell id="weqsW4NE5_YYrawKtb8E-45" style="edgeStyle=orthogonalEdgeStyle;rounded=0;orthogonalLoop=1;jettySize=auto;html=1;shadow=0;" edge="1" parent="WIyWlLk6GJQsqaUBKTNV-1" source="weqsW4NE5_YYrawKtb8E-38" target="weqsW4NE5_YYrawKtb8E-40">
          <mxGeometry relative="1" as="geometry" />
        </mxCell>
        <mxCell id="weqsW4NE5_YYrawKtb8E-38" value="逻辑表不空并且逻辑表都是分片或者广播" style="rhombus;whiteSpace=wrap;html=1;" vertex="1" parent="WIyWlLk6GJQsqaUBKTNV-1">
          <mxGeometry x="100" y="-570" width="80" height="80" as="geometry" />
        </mxCell>
        <mxCell id="weqsW4NE5_YYrawKtb8E-40" value="ShardingIgnoreRoutingEngine" style="rounded=0;whiteSpace=wrap;html=1;" vertex="1" parent="WIyWlLk6GJQsqaUBKTNV-1">
          <mxGeometry x="-150" y="-420" width="220" height="60" as="geometry" />
        </mxCell>
        <mxCell id="weqsW4NE5_YYrawKtb8E-43" value="ShardingTableBroadcastRoutingEngine" style="rounded=0;whiteSpace=wrap;html=1;" vertex="1" parent="WIyWlLk6GJQsqaUBKTNV-1">
          <mxGeometry x="230" y="-290" width="250" height="40" as="geometry" />
        </mxCell>
        <mxCell id="weqsW4NE5_YYrawKtb8E-52" style="edgeStyle=orthogonalEdgeStyle;rounded=0;orthogonalLoop=1;jettySize=auto;html=1;entryX=1;entryY=0.5;entryDx=0;entryDy=0;shadow=0;" edge="1" parent="WIyWlLk6GJQsqaUBKTNV-1" source="weqsW4NE5_YYrawKtb8E-50" target="weqsW4NE5_YYrawKtb8E-40">
          <mxGeometry relative="1" as="geometry" />
        </mxCell>
        <mxCell id="weqsW4NE5_YYrawKtb8E-53" value="Y" style="edgeLabel;html=1;align=center;verticalAlign=middle;resizable=0;points=[];" vertex="1" connectable="0" parent="weqsW4NE5_YYrawKtb8E-52">
          <mxGeometry x="-0.4323" y="1" relative="1" as="geometry">
            <mxPoint as="offset" />
          </mxGeometry>
        </mxCell>
        <mxCell id="weqsW4NE5_YYrawKtb8E-55" value="" style="edgeStyle=orthogonalEdgeStyle;rounded=0;orthogonalLoop=1;jettySize=auto;html=1;shadow=0;" edge="1" parent="WIyWlLk6GJQsqaUBKTNV-1" source="weqsW4NE5_YYrawKtb8E-50" target="weqsW4NE5_YYrawKtb8E-54">
          <mxGeometry relative="1" as="geometry" />
        </mxCell>
        <mxCell id="weqsW4NE5_YYrawKtb8E-50" value="MySQLUse" style="rhombus;whiteSpace=wrap;html=1;" vertex="1" parent="WIyWlLk6GJQsqaUBKTNV-1">
          <mxGeometry x="1390" y="-720" width="80" height="80" as="geometry" />
        </mxCell>
        <mxCell id="weqsW4NE5_YYrawKtb8E-57" value="" style="edgeStyle=orthogonalEdgeStyle;rounded=0;orthogonalLoop=1;jettySize=auto;html=1;shadow=0;" edge="1" parent="WIyWlLk6GJQsqaUBKTNV-1" source="weqsW4NE5_YYrawKtb8E-54" target="weqsW4NE5_YYrawKtb8E-56">
          <mxGeometry relative="1" as="geometry" />
        </mxCell>
        <mxCell id="weqsW4NE5_YYrawKtb8E-54" value="Set&lt;br&gt;PostgreSQLResetParameter&lt;br&gt;MySQLShowDatabases&lt;br&gt;PostgreSQLLoad" style="rhombus;whiteSpace=wrap;html=1;" vertex="1" parent="WIyWlLk6GJQsqaUBKTNV-1">
          <mxGeometry x="1530" y="-530" width="80" height="80" as="geometry" />
        </mxCell>
        <mxCell id="weqsW4NE5_YYrawKtb8E-58" style="edgeStyle=orthogonalEdgeStyle;rounded=0;orthogonalLoop=1;jettySize=auto;html=1;entryX=0.5;entryY=1;entryDx=0;entryDy=0;shadow=0;" edge="1" parent="WIyWlLk6GJQsqaUBKTNV-1" source="weqsW4NE5_YYrawKtb8E-56" target="weqsW4NE5_YYrawKtb8E-2">
          <mxGeometry relative="1" as="geometry" />
        </mxCell>
        <mxCell id="weqsW4NE5_YYrawKtb8E-56" value="" style="whiteSpace=wrap;html=1;" vertex="1" parent="WIyWlLk6GJQsqaUBKTNV-1">
          <mxGeometry x="1240" y="-520" width="120" height="60" as="geometry" />
        </mxCell>
      </root>
    </mxGraphModel>
  </diagram>
</mxfile>
